<?xml version="1.0" encoding="utf-8"?>
<!-- Generator: Adobe Illustrator 27.0.0, SVG Export Plug-In . SVG Version: 6.00 Build 0)  -->
<svg version="1.1" id="Layer_1" xmlns="http://www.w3.org/2000/svg" xmlns:xlink="http://www.w3.org/1999/xlink" x="0px" y="0px"
	 viewBox="0 0 1011.9 310" style="enable-background:new 0 0 1011.9 310;" xml:space="preserve">
<style type="text/css">
	.st0{fill:#F9C117;}
	.st1{fill:url(#SVGID_1_);}
	.st2{fill:url(#SVGID_00000100378130817364891760000010181029584897017218_);}
	.st3{fill:url(#SVGID_00000174600558391703702530000000856009713790980526_);}
	.st4{fill:url(#SVGID_00000002347121842930583690000008095486080035736723_);}
	.st5{fill:url(#SVGID_00000121258406000046307310000010563819568658793601_);}
	.st6{clip-path:url(#SVGID_00000037670156679587372580000014819880090734758785_);}
	.st7{fill:#117CC1;}
	.st8{fill:#034A6D;}
	.st9{fill:none;stroke:#034A6D;stroke-width:0.3542;stroke-miterlimit:10;}
	.st10{fill:none;stroke:#0B75AF;stroke-width:0.3542;stroke-miterlimit:10;}
	.st11{fill:none;stroke:#0A82BD;stroke-width:0.3542;stroke-miterlimit:10;}
	.st12{fill:none;stroke:#0D82BD;stroke-width:0.3542;stroke-miterlimit:10;}
	.st13{fill:none;stroke:#0572A7;stroke-width:0.3542;stroke-miterlimit:10;}
	.st14{fill:none;stroke:#117CC1;stroke-width:0.3542;stroke-miterlimit:10;}
	.st15{fill:#0B75AF;}
	.st16{clip-path:url(#SVGID_00000041282612653721544180000014612021161948950665_);}
	.st17{fill:#34A6DE;}
	.st18{fill:#2FA5DD;}
	.st19{fill:#0A82BD;}
	.st20{fill:#0572A7;}
	.st21{fill:#0B86C3;}
	.st22{fill:none;stroke:#2FA5DD;stroke-width:0.3542;stroke-miterlimit:10;}
	.st23{fill:none;stroke:#128ECE;stroke-width:0.3542;stroke-miterlimit:10;}
	.st24{fill:none;stroke:#0B86C3;stroke-width:0.3542;stroke-miterlimit:10;}
	.st25{fill:none;stroke:#077BB4;stroke-width:0.3542;stroke-miterlimit:10;}
	.st26{fill:none;stroke:#056F99;stroke-width:0.3542;stroke-miterlimit:10;}
	.st27{fill:#077BB4;}
	.st28{clip-path:url(#SVGID_00000046310269206364759930000014400817922524931754_);}
	.st29{fill:#0A96CE;}
	.st30{fill:#056F99;}
	.st31{fill:#0595CE;}
	.st32{fill:#0680B0;}
	.st33{fill:#0375A2;}
	.st34{fill:none;stroke:#014C69;stroke-width:0.3542;stroke-miterlimit:10;}
	.st35{fill:none;stroke:#0375A2;stroke-width:0.3542;stroke-miterlimit:10;}
	.st36{fill:none;stroke:#0595CE;stroke-width:0.3542;stroke-miterlimit:10;}
	.st37{fill:#014C69;}
	.st38{fill:none;stroke:#0680B0;stroke-width:0.3542;stroke-miterlimit:10;}
	.st39{clip-path:url(#SVGID_00000009587352326207352220000016404016061870448790_);}
	.st40{fill:#045E7A;}
	.st41{fill:#017494;}
	.st42{fill:#02A1D1;}
	.st43{fill:none;stroke:#017494;stroke-width:0.3542;stroke-miterlimit:10;}
	.st44{fill:none;stroke:#045E7A;stroke-width:0.3542;stroke-miterlimit:10;}
	.st45{fill:none;stroke:#0C85AC;stroke-width:0.3542;stroke-miterlimit:10;}
	.st46{fill:#00ABDE;}
	.st47{fill:none;stroke:#02A1D1;stroke-width:0.3542;stroke-miterlimit:10;}
	.st48{fill:none;}
	.st49{fill:#0988B0;}
	.st50{fill:none;stroke:#00ABDE;stroke-width:0.3542;stroke-miterlimit:10;}
	.st51{clip-path:url(#SVGID_00000089576574355978570060000008548925411654776215_);}
	.st52{fill:#0679A0;}
	.st53{fill:#3CAED2;}
	.st54{fill:none;stroke:#0679A0;stroke-width:0.3542;stroke-miterlimit:10;}
	.st55{fill:none;stroke:#3CAED2;stroke-width:0.3542;stroke-miterlimit:10;}
</style>
<g>
	<path class="st0" d="M311.3,62.4h29.8c0.1,0.4,0.1,0.8,0.1,1.2c0,0.4,0,1.1,0,2.1c0,9.8-2.8,17.7-8.4,23.8
		c-5.6,6.1-12.8,9.1-21.7,9.1c-10.1,0-18.5-3.2-25.1-9.7c-6.6-6.5-9.9-14.7-9.9-24.7c0-9.9,3.3-18,9.9-24.5c6.6-6.5,14.9-9.7,25-9.7
		c5.3,0,10.2,1.1,14.6,3.3c4.4,2.2,8.4,5.6,11.9,10l-9.4,7c-2.4-2.9-4.8-5-7.4-6.3c-2.6-1.3-5.6-1.9-9-1.9c-6.5,0-11.6,2-15.5,6
		c-3.9,4-5.8,9.4-5.8,16.1c0,6.6,1.9,11.9,5.8,16c3.9,4.1,8.9,6.1,15.2,6.1c4.6,0,8.3-1.1,11.2-3.2c2.9-2.2,4.3-5,4.3-8.5v-0.7
		h-15.7V62.4z"/>
	<path class="st0" d="M353.5,96.8V31.5h14v53.5h22.3v11.9H353.5z"/>
	<path class="st0" d="M463.4,64.3c0,4.7-0.9,9.1-2.6,13.3c-1.7,4.2-4.2,7.8-7.5,11c-3.4,3.2-7.2,5.7-11.5,7.5
		c-4.3,1.7-8.7,2.6-13.2,2.6c-4,0-7.9-0.7-11.7-2c-3.8-1.4-7.3-3.3-10.5-5.8c-4.1-3.3-7.3-7.2-9.4-11.7c-2.2-4.6-3.3-9.4-3.3-14.7
		c0-4.7,0.9-9.1,2.6-13.2c1.7-4.1,4.3-7.8,7.6-11c3.3-3.2,7.1-5.7,11.4-7.4c4.3-1.8,8.8-2.6,13.4-2.6c4.6,0,9,0.9,13.3,2.6
		c4.3,1.8,8.1,4.2,11.4,7.4c3.3,3.2,5.8,6.9,7.5,11C462.5,55.2,463.4,59.6,463.4,64.3z M428.5,86.1c5.9,0,10.8-2.1,14.7-6.2
		c3.9-4.2,5.8-9.3,5.8-15.6c0-6.2-1.9-11.4-5.8-15.6c-3.9-4.2-8.8-6.3-14.6-6.3c-5.9,0-10.8,2.1-14.7,6.3c-3.9,4.2-5.8,9.4-5.8,15.6
		c0,6.3,1.9,11.5,5.8,15.6C417.6,84,422.5,86.1,428.5,86.1z"/>
	<path class="st0" d="M476.3,96.8V31.5h12.2c6.3,0,11,0.2,13.9,0.7c2.9,0.5,5.5,1.3,7.6,2.4c2.5,1.5,4.5,3.4,5.9,5.8
		c1.4,2.4,2.1,5.1,2.1,8.1c0,3.9-1.1,7-3.4,9.3c-2.3,2.3-5.7,3.9-10.3,4.7c5.3,0.8,9.2,2.5,11.9,5.1c2.7,2.6,4,6.2,4,10.6
		c0,3.2-0.8,6.2-2.3,8.8c-1.5,2.7-3.7,4.7-6.4,6.2c-2.4,1.3-5.2,2.2-8.5,2.8c-3.2,0.6-8.6,0.8-16.1,0.8h-1.4H476.3z M490.3,57.6h3.1
		c4.2,0,7.2-0.6,9-1.8c1.8-1.2,2.6-3.2,2.6-6c0-2.7-0.8-4.7-2.5-5.8c-1.7-1.2-4.6-1.7-8.8-1.7h-3.4V57.6z M490.3,85.9h5.5
		c3.5,0,6.2-0.8,8-2.3c1.8-1.5,2.7-3.8,2.7-6.7c0-2.8-0.9-4.9-2.7-6.3c-1.8-1.5-4.4-2.2-7.8-2.2h-5.7V85.9z"/>
	<path class="st0" d="M524.3,96.8l24.9-65.3h16l25.2,65.3h-15.9l-5.3-13.9h-25.3l-4.6,13.9H524.3z M565.9,72l-7.3-21.1
		c-0.2-0.6-0.5-1.7-0.8-3.2c-0.3-1.5-0.7-3.4-1-5.6c-0.4,2.1-0.8,4-1.1,5.7c-0.4,1.7-0.6,2.8-0.8,3.4L547.8,72H565.9z"/>
	<path class="st0" d="M598.4,96.8V31.5h14v53.5h22.3v11.9H598.4z"/>
	<path class="st0" d="M273.2,204.8l10-65.3h14.6l12.6,38.5c0.3,0.8,0.6,2,0.9,3.5c0.3,1.5,0.6,3.3,0.9,5.3c0.2-2,0.5-3.8,0.8-5.4
		c0.3-1.6,0.6-2.8,0.8-3.5l12.8-38.4H341l10,65.3h-13.3l-4.8-39.4c-0.4-2.9-0.6-5.1-0.7-6.6c-0.1-1.5-0.2-2.9-0.2-4.1
		c0-0.7,0-1.2,0-1.5c0-0.3,0-0.6,0.1-0.9c-0.4,2.6-0.9,4.8-1.3,6.6c-0.4,1.9-0.8,3.3-1.1,4.2l-13.8,41.8h-7.9L294.5,163
		c-0.1-0.4-0.4-1.5-0.8-3.2c-0.4-1.8-1-4.3-1.7-7.7v1.9c0,3-0.3,6.8-0.8,11.2l0,0.2l-4.7,39.4H273.2z"/>
	<path class="st0" d="M361.2,204.8v-65.3h14v53.5h22.3v11.9H361.2z"/>
	<path class="st0" d="M401.8,204.8l10-65.3h14.6l12.6,38.5c0.3,0.8,0.6,2,0.9,3.5c0.3,1.5,0.6,3.3,0.9,5.3c0.2-2,0.5-3.8,0.8-5.4
		c0.3-1.6,0.6-2.8,0.8-3.5l12.8-38.4h14.4l10,65.3h-13.3l-4.8-39.4c-0.4-2.9-0.6-5.1-0.7-6.6c-0.1-1.5-0.2-2.9-0.2-4.1
		c0-0.7,0-1.2,0-1.5c0-0.3,0-0.6,0.1-0.9c-0.4,2.6-0.9,4.8-1.3,6.6c-0.4,1.9-0.8,3.3-1.1,4.2l-13.8,41.8h-7.9L423.1,163
		c-0.1-0.4-0.4-1.5-0.8-3.2c-0.4-1.8-1-4.3-1.7-7.7v1.9c0,3-0.3,6.8-0.8,11.2l0,0.2l-4.7,39.4H401.8z"/>
	<path class="st0" d="M514.9,196.5l7.8-8.8c1,2.4,2.6,4.3,4.7,5.7c2.2,1.4,4.6,2.1,7.3,2.1c3.3,0,5.9-0.8,7.8-2.3
		c1.9-1.5,2.9-3.6,2.9-6.2c0-3.1-3.2-6.2-9.5-9.2c-2.1-1-3.7-1.8-4.9-2.4c-5.7-3-9.7-5.9-11.9-8.7c-2.2-2.8-3.3-6.2-3.3-10.2
		c0-5.4,2.1-9.8,6.4-13.3c4.3-3.5,9.8-5.2,16.6-5.2c4,0,7.4,0.7,10.2,2.1c2.9,1.4,5.4,3.5,7.6,6.5l-8.3,7.9c-1-1.9-2.3-3.3-3.9-4.3
		c-1.6-0.9-3.6-1.4-5.9-1.4c-2.8,0-5,0.7-6.7,2.1c-1.7,1.4-2.5,3.2-2.5,5.4c0,3.5,3.4,6.6,10.1,9.5c1.3,0.6,2.4,1,3.1,1.3
		c5.5,2.5,9.6,5.4,12.3,8.6c2.7,3.2,4,6.8,4,10.9c0,6.1-2.1,11-6.3,14.7c-4.2,3.6-9.8,5.5-16.8,5.5c-5,0-9.3-0.9-12.9-2.6
		C519.3,202.2,516.7,199.8,514.9,196.5z"/>
	<path class="st0" d="M638.4,172.3c0,4.7-0.9,9.1-2.6,13.3s-4.2,7.8-7.5,11c-3.4,3.2-7.2,5.7-11.5,7.5c-4.3,1.7-8.7,2.6-13.2,2.6
		c-4,0-7.9-0.7-11.7-2c-3.8-1.4-7.3-3.3-10.5-5.8c-4.1-3.3-7.3-7.2-9.4-11.7c-2.2-4.6-3.3-9.4-3.3-14.7c0-4.7,0.9-9.1,2.6-13.2
		c1.7-4.1,4.3-7.8,7.6-11c3.3-3.2,7.1-5.7,11.4-7.4c4.3-1.8,8.8-2.6,13.4-2.6c4.6,0,9,0.9,13.3,2.6c4.3,1.8,8.1,4.2,11.4,7.4
		c3.3,3.2,5.8,6.9,7.5,11C637.5,163.2,638.4,167.6,638.4,172.3z M603.6,194.1c5.9,0,10.8-2.1,14.7-6.2c3.9-4.2,5.8-9.3,5.8-15.6
		c0-6.2-1.9-11.4-5.8-15.6c-3.9-4.2-8.8-6.3-14.6-6.3c-5.9,0-10.8,2.1-14.7,6.3c-3.9,4.2-5.8,9.4-5.8,15.6c0,6.3,1.9,11.5,5.8,15.6
		C592.6,192,597.5,194.1,603.6,194.1z"/>
	<path class="st0" d="M651.3,204.8v-65.3h38.5v11.8h-24.5v13.4h24.5v11.9h-24.5v28.2H651.3z"/>
	<path class="st0" d="M726.2,151.3v53.5h-14v-53.5h-16v-11.9h46v11.9H726.2z"/>
	<path class="st0" d="M797.9,139.5l9.7,35.4c0.6,2.3,1.2,4.7,1.7,7.3c0.5,2.6,1,5.5,1.5,8.7c0.1-2.7,0.3-5.4,0.6-8
		c0.3-2.6,0.9-5.3,1.5-8l8.5-35.4h13.8l-17.1,65.3h-13.4l-11.7-41.7c-0.6-1.9-1-3.8-1.3-5.8c-0.3-1.9-0.6-3.9-0.7-6
		c-0.1,2.2-0.4,4.3-0.7,6.2c-0.3,2-0.7,3.8-1.2,5.5l-11.8,41.7h-13.4l-17.1-65.3h14l8.6,36.3c0.5,2.1,0.9,4.3,1.2,6.8
		c0.3,2.4,0.5,5.1,0.7,7.9c0.6-3.8,1.6-8.6,3.1-14.4l0.2-0.9l9.6-35.7H797.9z"/>
	<path class="st0" d="M836.2,204.8l24.9-65.3h16l25.2,65.3h-15.9l-5.3-13.9h-25.3l-4.6,13.9H836.2z M877.8,180l-7.3-21.1
		c-0.2-0.6-0.5-1.7-0.8-3.2c-0.3-1.5-0.7-3.4-1-5.6c-0.4,2.1-0.8,4-1.1,5.7c-0.4,1.7-0.6,2.8-0.8,3.4l-7.1,20.8H877.8z"/>
	<path class="st0" d="M957.5,204.8h-16.1l-17.2-30.5v30.5h-14v-65.3h20c7.9,0,13.9,1.5,17.8,4.6c4,3.1,5.9,7.7,5.9,13.9
		c0,4.5-1.4,8.3-4.1,11.5c-2.7,3.2-6.2,5-10.5,5.6L957.5,204.8z M924.2,167.3h2.1c5.7,0,9.4-0.6,11.2-1.9s2.7-3.4,2.7-6.4
		c0-3.2-1-5.5-2.9-6.9c-1.9-1.4-5.6-2-11-2h-2.1V167.3z"/>
	<path class="st0" d="M966.8,204.8v-65.3h38.5v11.8h-24.5v13.4h24.5v11.9h-24.5v16.4h24.5v11.9H966.8z"/>
</g>
<g>
	<g>
		<path class="st0" d="M275,274.9v-28.6h6.7c1.9,0,3.3,0.1,4.2,0.3c0.9,0.2,1.7,0.6,2.4,1.1c0.8,0.7,1.5,1.6,2,2.7s0.7,2.3,0.7,3.7
			c0,2.3-0.7,4.1-2,5.3s-3.2,1.8-5.8,1.8h-0.6l10.9,13.6h-4.3l-10.4-13.6h-0.5v13.6H275z M278.3,249.1v9.6h2.6c2.7,0,4.4-0.3,5.3-1
			s1.3-1.9,1.3-3.6c0-1.8-0.5-3.1-1.4-3.9c-0.9-0.7-2.7-1.1-5.3-1.1H278.3z"/>
		<path class="st0" d="M296.4,274.9v-28.6h3.4v28.6H296.4z"/>
		<path class="st0" d="M322.5,260.1h11.8v1c0,4.5-1.3,8.1-3.8,10.7c-2.6,2.6-6,3.9-10.4,3.9c-1.3,0-2.6-0.1-3.8-0.4
			c-1.2-0.3-2.3-0.7-3.4-1.2c-2.3-1.3-4.2-3.1-5.4-5.3c-1.3-2.3-1.9-4.9-1.9-7.7c0-2.4,0.4-4.5,1.1-6.5c0.8-1.9,1.9-3.6,3.4-5.1
			c1.3-1.2,2.8-2.1,4.5-2.8c1.7-0.6,3.6-0.9,5.7-0.9c2.7,0,5.1,0.5,7.1,1.5c2,1,3.7,2.5,5,4.5l-2.9,2.3c-1-1.7-2.3-3-3.8-3.9
			c-1.5-0.9-3.3-1.3-5.4-1.3c-3.3,0-6,1.1-8.1,3.4s-3.1,5.2-3.1,8.8c0,3.4,1.1,6.2,3.2,8.4c2.1,2.2,4.8,3.3,8,3.3
			c2.9,0,5.3-0.9,7.2-2.6c1.9-1.7,3-4,3.2-6.8h-8.2V260.1z"/>
		<path class="st0" d="M339.3,274.9v-28.6h3.4v11h15.2v-11h3.5v28.6h-3.5v-14.4h-15.2v14.4H339.3z"/>
		<path class="st0" d="M373.2,274.9v-25.4h-8.1v-3.2h19.6v3.2h-8v25.4H373.2z"/>
		<path class="st0" d="M423.5,253.1c-1.4-1.5-2.8-2.6-4.4-3.3c-1.5-0.7-3.3-1.1-5.1-1.1c-1.5,0-3,0.3-4.4,0.9
			c-1.4,0.6-2.7,1.5-3.7,2.6c-1.1,1.1-1.9,2.4-2.5,3.8c-0.5,1.4-0.8,2.9-0.8,4.6c0,1.3,0.2,2.6,0.5,3.7c0.3,1.1,0.8,2.1,1.5,3.1
			c1.1,1.6,2.6,2.9,4.2,3.8c1.7,0.9,3.5,1.3,5.4,1.3c1.8,0,3.5-0.4,5.1-1.1s3-1.9,4.3-3.4v4.5c-1.4,1-2.9,1.8-4.6,2.3
			c-1.6,0.5-3.3,0.8-5.1,0.8c-1.5,0-3-0.2-4.4-0.7c-1.4-0.4-2.8-1.1-4-2c-2.1-1.4-3.7-3.2-4.8-5.3c-1.1-2.1-1.7-4.4-1.7-7
			c0-2.2,0.4-4.2,1.1-6c0.7-1.8,1.9-3.4,3.4-4.9c1.5-1.4,3.1-2.5,4.8-3.2c1.8-0.7,3.7-1,5.8-1c1.7,0,3.3,0.3,4.8,0.8
			c1.5,0.5,3.1,1.3,4.6,2.3V253.1z"/>
		<path class="st0" d="M429.3,274.9v-28.6h3.4v11h15.2v-11h3.5v28.6h-3.5v-14.4h-15.2v14.4H429.3z"/>
		<path class="st0" d="M487.4,260.6c0,2-0.4,4-1.1,5.8s-1.9,3.4-3.3,4.8s-3.1,2.5-5,3.3s-3.8,1.1-5.9,1.1s-4-0.4-5.8-1.1
			c-1.9-0.8-3.5-1.8-5-3.3c-1.5-1.4-2.6-3-3.3-4.8c-0.8-1.8-1.1-3.7-1.1-5.8c0-2,0.4-4,1.1-5.8c0.8-1.8,1.9-3.4,3.3-4.9
			c1.4-1.4,3.1-2.5,5-3.2c1.9-0.8,3.8-1.1,5.8-1.1c2,0,4,0.4,5.9,1.1s3.5,1.8,5,3.2c1.4,1.4,2.5,3,3.3,4.8
			C487,256.6,487.4,258.6,487.4,260.6z M472.1,272.4c1.6,0,3.1-0.3,4.5-0.9s2.7-1.5,3.8-2.6c1.1-1.1,2-2.4,2.6-3.8s0.9-2.9,0.9-4.5
			c0-1.6-0.3-3.1-0.9-4.6c-0.6-1.4-1.4-2.7-2.6-3.8c-1.1-1.1-2.4-2-3.8-2.6s-2.9-0.9-4.5-0.9c-1.6,0-3.1,0.3-4.5,0.9
			s-2.7,1.4-3.8,2.6c-1.1,1.1-2,2.4-2.6,3.8c-0.6,1.4-0.9,2.9-0.9,4.6c0,1.6,0.3,3.1,0.9,4.5c0.6,1.4,1.4,2.7,2.6,3.8
			c1.1,1.1,2.4,2,3.8,2.6C469,272.1,470.5,272.4,472.1,272.4z"/>
		<path class="st0" d="M493,274.9v-28.6h3.4v28.6H493z"/>
		<path class="st0" d="M526.5,253.1c-1.4-1.5-2.8-2.6-4.4-3.3s-3.3-1.1-5.1-1.1c-1.5,0-3,0.3-4.4,0.9s-2.7,1.5-3.7,2.6
			c-1.1,1.1-1.9,2.4-2.5,3.8c-0.5,1.4-0.8,2.9-0.8,4.6c0,1.3,0.2,2.6,0.5,3.7s0.8,2.1,1.5,3.1c1.1,1.6,2.6,2.9,4.2,3.8
			s3.5,1.3,5.4,1.3c1.8,0,3.5-0.4,5.1-1.1s3-1.9,4.3-3.4v4.5c-1.4,1-2.9,1.8-4.6,2.3s-3.3,0.8-5.1,0.8c-1.5,0-3-0.2-4.4-0.7
			s-2.8-1.1-4-2c-2.1-1.4-3.7-3.2-4.8-5.3s-1.7-4.4-1.7-7c0-2.2,0.4-4.2,1.1-6c0.7-1.8,1.9-3.4,3.4-4.9c1.5-1.4,3.1-2.5,4.8-3.2
			s3.7-1,5.8-1c1.7,0,3.3,0.3,4.8,0.8s3.1,1.3,4.6,2.3V253.1z"/>
		<path class="st0" d="M532.3,274.9v-28.6h15.1v3.1h-11.7v8.2h11.7v3.2h-11.7v11h11.7v3.2H532.3z"/>
		<path class="st0" d="M564.9,274.9v-28.6H580v3.1h-11.7v8.2H580v3.2h-11.7v14.1H564.9z"/>
		<path class="st0" d="M614.5,260.6c0,2-0.4,4-1.1,5.8s-1.9,3.4-3.3,4.8s-3.1,2.5-5,3.3s-3.8,1.1-5.9,1.1s-4-0.4-5.8-1.1
			c-1.9-0.8-3.5-1.8-5-3.3c-1.5-1.4-2.6-3-3.3-4.8c-0.8-1.8-1.1-3.7-1.1-5.8c0-2,0.4-4,1.1-5.8c0.8-1.8,1.9-3.4,3.3-4.9
			c1.4-1.4,3.1-2.5,5-3.2c1.9-0.8,3.8-1.1,5.8-1.1c2,0,4,0.4,5.9,1.1s3.5,1.8,5,3.2c1.4,1.4,2.5,3,3.3,4.8
			C614.1,256.6,614.5,258.6,614.5,260.6z M599.2,272.4c1.6,0,3.1-0.3,4.5-0.9s2.7-1.5,3.8-2.6c1.1-1.1,2-2.4,2.6-3.8
			s0.9-2.9,0.9-4.5c0-1.6-0.3-3.1-0.9-4.6c-0.6-1.4-1.4-2.7-2.6-3.8c-1.1-1.1-2.4-2-3.8-2.6s-2.9-0.9-4.5-0.9
			c-1.6,0-3.1,0.3-4.5,0.9s-2.7,1.4-3.8,2.6c-1.1,1.1-2,2.4-2.6,3.8c-0.6,1.4-0.9,2.9-0.9,4.6c0,1.6,0.3,3.1,0.9,4.5
			c0.6,1.4,1.4,2.7,2.6,3.8c1.1,1.1,2.4,2,3.8,2.6C596.1,272.1,597.6,272.4,599.2,272.4z"/>
		<path class="st0" d="M620,274.9v-28.6h6.7c1.9,0,3.3,0.1,4.2,0.3s1.7,0.6,2.4,1.1c0.8,0.7,1.5,1.6,2,2.7s0.7,2.3,0.7,3.7
			c0,2.3-0.7,4.1-2,5.3s-3.2,1.8-5.8,1.8h-0.6l10.9,13.6h-4.3l-10.4-13.6h-0.5v13.6H620z M623.3,249.1v9.6h2.6c2.7,0,4.4-0.3,5.3-1
			s1.3-1.9,1.3-3.6c0-1.8-0.5-3.1-1.4-3.9s-2.7-1.1-5.3-1.1H623.3z"/>
		<path class="st0" d="M653.2,274.9v-28.6h5.5c4.1,0,6.9,0.2,8.6,0.6s3.1,1.1,4.4,2.1c1.6,1.3,2.9,2.9,3.7,4.8s1.3,4.2,1.3,6.8
			c0,2.6-0.4,4.8-1.3,6.8s-2.1,3.6-3.7,4.8c-1.2,1-2.7,1.7-4.3,2.1s-4.1,0.6-7.5,0.6h-1.2H653.2z M656.7,271.7h2.2
			c3.5,0,6-0.2,7.3-0.5s2.5-0.8,3.4-1.6c1.2-1,2.1-2.2,2.7-3.8s0.9-3.3,0.9-5.3c0-2-0.3-3.8-0.9-5.3c-0.6-1.5-1.5-2.8-2.7-3.8
			c-0.9-0.8-2-1.3-3.4-1.6s-3.8-0.5-7.3-0.5h-2.2V271.7z"/>
		<path class="st0" d="M682.3,274.9v-28.6h3.4v28.6H682.3z"/>
		<path class="st0" d="M692.6,274.9v-28.6h6.7c1.9,0,3.3,0.1,4.2,0.3s1.7,0.6,2.4,1.1c0.8,0.7,1.5,1.6,2,2.7s0.7,2.3,0.7,3.7
			c0,2.3-0.7,4.1-2,5.3s-3.2,1.8-5.8,1.8h-0.6l10.9,13.6h-4.3l-10.4-13.6h-0.5v13.6H692.6z M695.9,249.1v9.6h2.6
			c2.7,0,4.4-0.3,5.3-1s1.3-1.9,1.3-3.6c0-1.8-0.5-3.1-1.4-3.9s-2.7-1.1-5.3-1.1H695.9z"/>
		<path class="st0" d="M714,274.9v-28.6h15.1v3.1h-11.7v8.2h11.7v3.2h-11.7v11h11.7v3.2H714z"/>
		<path class="st0" d="M758,253.1c-1.4-1.5-2.8-2.6-4.4-3.3s-3.3-1.1-5.1-1.1c-1.5,0-3,0.3-4.4,0.9s-2.7,1.5-3.7,2.6
			c-1.1,1.1-1.9,2.4-2.5,3.8c-0.5,1.4-0.8,2.9-0.8,4.6c0,1.3,0.2,2.6,0.5,3.7s0.8,2.1,1.5,3.1c1.1,1.6,2.6,2.9,4.2,3.8
			s3.5,1.3,5.4,1.3c1.8,0,3.5-0.4,5.1-1.1s3-1.9,4.3-3.4v4.5c-1.4,1-2.9,1.8-4.6,2.3s-3.3,0.8-5.1,0.8c-1.5,0-3-0.2-4.4-0.7
			s-2.8-1.1-4-2c-2.1-1.4-3.7-3.2-4.8-5.3s-1.7-4.4-1.7-7c0-2.2,0.4-4.2,1.1-6c0.7-1.8,1.9-3.4,3.4-4.9c1.5-1.4,3.1-2.5,4.8-3.2
			s3.7-1,5.8-1c1.7,0,3.3,0.3,4.8,0.8s3.1,1.3,4.6,2.3V253.1z"/>
		<path class="st0" d="M768.8,274.9v-25.4h-8.1v-3.2h19.6v3.2h-8v25.4H768.8z"/>
		<path class="st0" d="M806.3,259c1.9,0.8,3.3,1.8,4.2,3.2s1.4,2.9,1.4,4.7c0,2.6-0.8,4.7-2.5,6.4s-3.9,2.4-6.7,2.4
			c-2.3,0-4.1-0.6-5.7-1.7s-2.6-2.8-3.1-4.9l3.1-1.5c0.4,1.7,1.1,3,2.1,3.9s2.2,1.3,3.6,1.3c1.7,0,3.1-0.5,4.1-1.5s1.6-2.3,1.6-3.8
			c0-1.3-0.4-2.4-1.1-3.3s-1.8-1.7-3.3-2.4l-3.5-1.5c-1.9-0.8-3.3-1.8-4.2-3.1c-0.9-1.2-1.4-2.7-1.4-4.5c0-2,0.8-3.7,2.3-5
			s3.4-2,5.8-2c1.7,0,3.2,0.4,4.5,1.1s2.2,1.8,2.9,3.2l-2.8,1.8c-0.6-1.1-1.4-1.9-2.1-2.5s-1.7-0.8-2.7-0.8c-1.3,0-2.3,0.4-3.1,1.2
			s-1.2,1.8-1.2,3c0,1,0.3,1.9,0.9,2.6s1.6,1.4,2.9,2L806.3,259z"/>
		<path class="st0" d="M816.5,274.9v-28.6h15.1v3.1h-11.7v8.2h11.7v3.2h-11.7v11h11.7v3.2H816.5z"/>
		<path class="st0" d="M837.3,274.9v-28.6h3.4v25.4h10.8v3.2H837.3z"/>
		<path class="st0" d="M855.5,274.9v-28.6h3.4v25.4h10.8v3.2H855.5z"/>
		<path class="st0" d="M873.8,274.9v-28.6h3.4v28.6H873.8z"/>
		<path class="st0" d="M884.1,274.9v-29.7l20.9,22.9v-21.7h3.2V276l-20.9-22.6v21.5H884.1z"/>
		<path class="st0" d="M930.9,260.1h11.8v1c0,4.5-1.3,8.1-3.8,10.7s-6,3.9-10.4,3.9c-1.3,0-2.6-0.1-3.8-0.4s-2.3-0.7-3.4-1.2
			c-2.3-1.3-4.2-3.1-5.4-5.3s-1.9-4.9-1.9-7.7c0-2.4,0.4-4.5,1.1-6.5c0.8-1.9,1.9-3.6,3.4-5.1c1.3-1.2,2.8-2.1,4.5-2.8
			s3.6-0.9,5.7-0.9c2.7,0,5.1,0.5,7.1,1.5s3.7,2.5,5,4.5l-2.9,2.3c-1-1.7-2.3-3-3.8-3.9s-3.3-1.3-5.4-1.3c-3.3,0-6,1.1-8.1,3.4
			s-3.1,5.2-3.1,8.8c0,3.4,1.1,6.2,3.2,8.4s4.8,3.3,8,3.3c2.9,0,5.3-0.9,7.2-2.6s3-4,3.2-6.8h-8.2V260.1z"/>
	</g>
</g>
<g>
	<linearGradient id="SVGID_1_" gradientUnits="userSpaceOnUse" x1="94.1312" y1="25.5547" x2="147.0989" y2="300.482">
		<stop  offset="0" style="stop-color:#4CC9F3"/>
		<stop  offset="1" style="stop-color:#117CC1"/>
	</linearGradient>
	<path class="st1" d="M76.5,284.2c0,0,32.8,23.3,72.7,22.4c0,0,38.7,3.8,59.9-12.6c3.3-2.5,3.9-7.2,1.4-10.5
		c-3.5-4.5-11.1-9.2-27.6-5.6C158.4,283.3,120.6,301.4,76.5,284.2z"/>
	
		<linearGradient id="SVGID_00000166637910330831982930000002001042664922702758_" gradientUnits="userSpaceOnUse" x1="90.1548" y1="26.3208" x2="143.1224" y2="301.2481">
		<stop  offset="0" style="stop-color:#4CC9F3"/>
		<stop  offset="1" style="stop-color:#117CC1"/>
	</linearGradient>
	<path style="fill:url(#SVGID_00000166637910330831982930000002001042664922702758_);" d="M18,220c0,0,22.3,40.4,50.6,58
		c0,0,20.2,14.9,77.1,2.1c0,0,39.9-8,74.5-25.8c0,0,27-12.3,14.4-39.8c0,0-10.8-23.1-44.4-4.9c-35.1,19-97.5,30.8-120.6,29.4
		C47.1,237.7,31.1,236.1,18,220z"/>
	
		<linearGradient id="SVGID_00000145755671497773666520000006769533856726092422_" gradientUnits="userSpaceOnUse" x1="104.2227" y1="23.6105" x2="157.1904" y2="298.5378">
		<stop  offset="0" style="stop-color:#4CC9F3"/>
		<stop  offset="1" style="stop-color:#117CC1"/>
	</linearGradient>
	<path style="fill:url(#SVGID_00000145755671497773666520000006769533856726092422_);" d="M1.9,132.3c0,0-2.4,48.2,90.2,28.6
		c0,0,58-10.5,116.4-51.3c0,0,17-14.9,33.9,1.8s21.3,42.3-7.6,59.8s-115.6,65-185.1,55.8c0,0-30.5-3-39.3-26.7S1,161.3,1.9,132.3z"
		/>
	
		<linearGradient id="SVGID_00000075860056155065059210000008446884683370037140_" gradientUnits="userSpaceOnUse" x1="109.6423" y1="22.5663" x2="162.61" y2="297.4936">
		<stop  offset="0" style="stop-color:#4CC9F3"/>
		<stop  offset="1" style="stop-color:#117CC1"/>
	</linearGradient>
	<path style="fill:url(#SVGID_00000075860056155065059210000008446884683370037140_);" d="M35.3,50.2c0,0-22.7,30,12.5,37
		s79.3-9.9,113.4-34.2c0,0,15.6-12.1,22.6-21.6s42.6,6.3,42.6,6.3s20.6,11.5,12.5,26.8c-8.1,15.3-57.2,59.1-132.3,80.7
		S2.3,141.4,4.7,119S16.7,75.7,35.3,50.2z"/>
	
		<linearGradient id="SVGID_00000181083542483084490840000010143395761927860885_" gradientUnits="userSpaceOnUse" x1="106.7344" y1="23.1266" x2="159.7021" y2="298.0538">
		<stop  offset="0" style="stop-color:#4CC9F3"/>
		<stop  offset="1" style="stop-color:#117CC1"/>
	</linearGradient>
	<path style="fill:url(#SVGID_00000181083542483084490840000010143395761927860885_);" d="M80.1,10.9c1.6-0.9,3.5-1.2,5.3-1
		c2.3,0.3,4.9,1.4,5.5,4.3c1,5.3-5.6,4.9-3.4,9.6c2.2,4.7,15.8,1.4,19.8-1.8s6.1-6.7,6.1-6.7s2.5-7.1,21.4-9.9s15.8-2.8,15.8-2.8
		s14.5-2.7,27.2,0.9s-10.2,30-16.1,34.9c-5.9,4.9-47.5,40.1-102.6,39.7c0,0-26-0.1-22.6-23.4C39.2,36.4,71.7,15.6,80.1,10.9z"/>
	<g>
		<defs>
			<path id="SVGID_00000183215035812909556580000011495832690997304745_" d="M182.9,278c-24.5,5.2-62.3,23.4-106.4,6.2
				c0,0,32.8,23.3,72.7,22.4c0,0,38.7,3.8,59.9-12.6c3.3-2.5,3.9-7.2,1.4-10.5C207,279,199.4,274.4,182.9,278z"/>
		</defs>
		<clipPath id="SVGID_00000130645214343831425450000008415284159889611169_">
			<use xlink:href="#SVGID_00000183215035812909556580000011495832690997304745_"  style="overflow:visible;"/>
		</clipPath>
		<g style="clip-path:url(#SVGID_00000130645214343831425450000008415284159889611169_);">
			<circle class="st7" cx="174.5" cy="305.7" r="5.1"/>
			<circle class="st8" cx="135.6" cy="305.7" r="5.1"/>
			<circle class="st8" cx="127" cy="305.4" r="3.9"/>
			<line class="st9" x1="156.2" y1="283.4" x2="134" y2="301.6"/>
			<line class="st10" x1="220.1" y1="287.6" x2="140.7" y2="305.7"/>
			<line class="st10" x1="210.4" y1="278.7" x2="191.8" y2="305.4"/>
			<line class="st11" x1="161.5" y1="283.4" x2="164.8" y2="310.8"/>
			<line class="st9" x1="130" y1="289.1" x2="128.2" y2="302.3"/>
			<line class="st12" x1="120.1" y1="291.3" x2="131.6" y2="302.6"/>
			<line class="st13" x1="118.3" y1="291.1" x2="125.8" y2="301.8"/>
			<line class="st13" x1="124.4" y1="302.6" x2="91.4" y2="287.6"/>
			<line class="st10" x1="214.3" y1="287.2" x2="199.6" y2="276.3"/>
			<line class="st10" x1="214.3" y1="288.9" x2="177.4" y2="306.5"/>
			<line class="st14" x1="182.6" y1="269.6" x2="176.8" y2="303.7"/>
			<circle class="st15" cx="180.8" cy="287.6" r="5.1"/>
		</g>
	</g>
	<g>
		<defs>
			<path id="SVGID_00000114765869219369392770000001418546176472530313_" d="M190.3,209.6c-35.1,19-97.5,30.8-120.6,29.4
				c-22.5-1.4-38.5-2.9-51.6-19c0,0,22.3,40.4,50.6,58c0,0,20.2,14.9,77.1,2.1c0,0,39.9-8,74.5-25.8c0,0,27-12.3,14.4-39.8
				C234.7,214.5,223.9,191.4,190.3,209.6z"/>
		</defs>
		<clipPath id="SVGID_00000091001470018490138560000004610786894076613806_">
			<use xlink:href="#SVGID_00000114765869219369392770000001418546176472530313_"  style="overflow:visible;"/>
		</clipPath>
		<g style="clip-path:url(#SVGID_00000091001470018490138560000004610786894076613806_);">
			<circle class="st8" cx="138.5" cy="233" r="4.8"/>
			<circle class="st17" cx="234.2" cy="247.9" r="4.3"/>
			<circle class="st18" cx="234.2" cy="214.9" r="4.3"/>
			<circle class="st19" cx="98.5" cy="273.9" r="5.6"/>
			<circle class="st20" cx="85.5" cy="243.3" r="3.9"/>
			<circle class="st21" cx="38.6" cy="234.6" r="4.8"/>
			<line class="st12" x1="103.6" y1="271.6" x2="152.7" y2="248.9"/>
			<line class="st22" x1="220" y1="234.6" x2="218.4" y2="259"/>
			<line class="st22" x1="230" y1="246.8" x2="222.7" y2="233.7"/>
			<line class="st22" x1="234.8" y1="218.3" x2="240.6" y2="237.7"/>
			<line class="st22" x1="230.5" y1="215.8" x2="195" y2="206.6"/>
			<line class="st22" x1="230.6" y1="210.1" x2="206.7" y2="201.9"/>
			<line class="st23" x1="216.2" y1="228.8" x2="189" y2="209"/>
			<line class="st23" x1="201" y1="203.6" x2="216.6" y2="261.3"/>
			<line class="st23" x1="216.9" y1="232.8" x2="186.5" y2="263.1"/>
			<line class="st11" x1="160.7" y1="248.4" x2="206.7" y2="264.8"/>
			<line class="st11" x1="160.2" y1="242.6" x2="188.4" y2="208.9"/>
			<line class="st11" x1="157.3" y1="250.7" x2="160.6" y2="280.9"/>
			<line class="st11" x1="156.5" y1="241" x2="155.6" y2="220.5"/>
			<line class="st12" x1="96.9" y1="268.5" x2="88.4" y2="245.8"/>
			<line class="st12" x1="96.6" y1="279.1" x2="91.3" y2="286.8"/>
			<line class="st12" x1="99.7" y1="279.3" x2="102.8" y2="289.2"/>
			<line class="st12" x1="102.2" y1="278.1" x2="114" y2="288.5"/>
			<line class="st12" x1="94" y1="270.6" x2="41.7" y2="238.3"/>
			<line class="st13" x1="83.8" y1="245.5" x2="56.6" y2="270.9"/>
			<line class="st24" x1="46.8" y1="260.3" x2="38.6" y2="239.4"/>
			<line class="st9" x1="42.7" y1="256.6" x2="26.3" y2="228.4"/>
			<line class="st9" x1="134.7" y1="233.6" x2="89.4" y2="243.3"/>
			<line class="st9" x1="137.3" y1="236.6" x2="130.9" y2="286.5"/>
			<line class="st9" x1="141.6" y1="231.5" x2="156.5" y2="222.9"/>
			<line class="st9" x1="167.9" y1="277.3" x2="181" y2="267.1"/>
			<line class="st25" x1="183.9" y1="262" x2="182.5" y2="211.6"/>
			<line class="st22" x1="232.4" y1="218.8" x2="222.9" y2="228.4"/>
			<line class="st13" x1="87.7" y1="246.5" x2="115.6" y2="289.6"/>
			<line class="st26" x1="48.4" y1="228.9" x2="52.2" y2="273.9"/>
			<line class="st26" x1="85.9" y1="247.2" x2="87.2" y2="288.1"/>
			<circle class="st27" cx="183.9" cy="265.7" r="3.7"/>
			<circle class="st18" cx="220" cy="230.3" r="4.3"/>
			<circle class="st19" cx="156.5" cy="245.8" r="4.9"/>
			<line class="st9" x1="141.4" y1="236" x2="180.6" y2="264"/>
		</g>
	</g>
	<g>
		<defs>
			<path id="SVGID_00000063598421018651473520000004409257604463179195_" d="M242.5,111.4c-17-16.7-33.9-1.8-33.9-1.8
				c-58.4,40.8-116.4,51.3-116.4,51.3C2.1,180,1.9,134.9,1.9,132.4c-0.9,28.9-0.2,44.2,8.6,67.9C19.3,224,49.9,227,49.9,227
				c69.5,9.2,156.2-38.3,185.1-55.8S259.5,128.1,242.5,111.4z"/>
		</defs>
		<clipPath id="SVGID_00000067922253011075835320000007343337417275595931_">
			<use xlink:href="#SVGID_00000063598421018651473520000004409257604463179195_"  style="overflow:visible;"/>
		</clipPath>
		<g style="clip-path:url(#SVGID_00000067922253011075835320000007343337417275595931_);">
			<circle class="st29" cx="152.1" cy="191.4" r="4.7"/>
			<circle class="st30" cx="78.4" cy="169" r="4"/>
			<circle class="st31" cx="67.4" cy="190.1" r="4.5"/>
			<circle class="st32" cx="9" cy="197.4" r="4"/>
			<circle class="st33" cx="234.1" cy="136.5" r="3.7"/>
			<circle class="st33" cx="244.4" cy="111.9" r="3.7"/>
			<circle class="st31" cx="248.2" cy="136.5" r="3.7"/>
			<circle class="st31" cx="190.2" cy="123.6" r="4.2"/>
			<line class="st34" x1="191.1" y1="146.7" x2="181.5" y2="199.7"/>
			<line class="st34" x1="193.7" y1="146.2" x2="215.6" y2="184.1"/>
			<line class="st35" x1="249.3" y1="140.3" x2="252.8" y2="157.6"/>
			<line class="st35" x1="248.2" y1="132.8" x2="248.2" y2="116.5"/>
			<line class="st35" x1="251.7" y1="137.8" x2="258" y2="142.8"/>
			<line class="st35" x1="244.4" y1="136.5" x2="237.8" y2="136.5"/>
			<line class="st36" x1="245.7" y1="133.7" x2="194" y2="124.4"/>
			<line class="st36" x1="237.8" y1="170" x2="193.5" y2="126.3"/>
			<line class="st35" x1="235.4" y1="133" x2="239.6" y2="106.2"/>
			<line class="st35" x1="236" y1="139.7" x2="248.2" y2="161.1"/>
			<line class="st34" x1="194.5" y1="142.2" x2="230.3" y2="136.5"/>
			<line class="st34" x1="244.4" y1="168.2" x2="194.5" y2="144.1"/>
			<line class="st34" x1="208.2" y1="105.3" x2="231.5" y2="133.7"/>
			<line class="st36" x1="188.3" y1="126.9" x2="154.7" y2="187.4"/>
			<line class="st36" x1="152.1" y1="186.7" x2="146" y2="143.9"/>
			<line class="st36" x1="152.1" y1="196.1" x2="153.9" y2="211"/>
			<line class="st36" x1="151.4" y1="188" x2="118.9" y2="149.1"/>
			<line class="st36" x1="144.5" y1="192.1" x2="71.8" y2="190.1"/>
			<line class="st36" x1="71.2" y1="192.5" x2="121" y2="223.6"/>
			<line class="st36" x1="68.6" y1="194.4" x2="82.4" y2="231.2"/>
			<line class="st36" x1="64.3" y1="193.4" x2="41.2" y2="225.6"/>
			<line class="st36" x1="63.4" y1="190.8" x2="11.2" y2="206.9"/>
			<line class="st36" x1="65.3" y1="186.7" x2="48" y2="163.2"/>
			<line class="st36" x1="69.6" y1="186.2" x2="78.4" y2="172.9"/>
			<line class="st34" x1="148.4" y1="186.1" x2="188.9" y2="145.3"/>
			<line class="st26" x1="82.9" y1="227.5" x2="78.4" y2="172.1"/>
			<line class="st26" x1="43.5" y1="201.4" x2="46.8" y2="227.6"/>
			<line class="st26" x1="82.2" y1="170" x2="142.4" y2="187.4"/>
			<line class="st26" x1="145.1" y1="185.6" x2="128.2" y2="146.7"/>
			<line class="st26" x1="80.6" y1="171.3" x2="127.2" y2="222.6"/>
			<line class="st26" x1="145.3" y1="192.3" x2="139.8" y2="217.5"/>
			<line class="st36" x1="197.2" y1="192.5" x2="191.1" y2="126.3"/>
			<circle class="st37" cx="191.8" cy="143.2" r="4"/>
			<line class="st34" x1="189.4" y1="141.1" x2="172.5" y2="130.6"/>
			<line class="st38" x1="8.1" y1="180.5" x2="24" y2="159.4"/>
			<line class="st38" x1="42.3" y1="196" x2="11.8" y2="172.9"/>
			<line class="st38" x1="9.5" y1="173.2" x2="24.9" y2="219.3"/>
			<line class="st38" x1="7.9" y1="166.1" x2="-0.5" y2="145.4"/>
			<line class="st38" x1="12.3" y1="167.7" x2="22.3" y2="158.2"/>
			<line class="st38" x1="11.8" y1="149.1" x2="9" y2="166"/>
			<line class="st38" x1="8.3" y1="173.4" x2="7.7" y2="199"/>
			<line class="st26" x1="152.6" y1="140.1" x2="146.6" y2="185.6"/>
			<circle class="st37" cx="146" cy="189.1" r="4"/>
			<line class="st34" x1="197.9" y1="113.4" x2="192.5" y2="139.5"/>
			<line class="st26" x1="88.5" y1="160.1" x2="81.6" y2="166.7"/>
			<line class="st26" x1="76.2" y1="161.4" x2="76.9" y2="166"/>
			<line class="st26" x1="74.4" y1="169" x2="12.5" y2="170.9"/>
			<line class="st26" x1="75.5" y1="171.7" x2="46.2" y2="195.4"/>
			<circle class="st32" cx="9" cy="170" r="4"/>
			<circle class="st30" cx="43.5" cy="197" r="4.5"/>
			<line class="st26" x1="46.3" y1="199.8" x2="74" y2="230.1"/>
			<line class="st36" x1="156.5" y1="192.9" x2="177.2" y2="201.5"/>
		</g>
	</g>
	<g>
		<defs>
			<path id="SVGID_00000105406207188996027610000006391951332131994758_" d="M106.5,145.2c75.1-21.6,124.2-65.4,132.3-80.7
				c8.1-15.3-12.5-26.8-12.5-26.8s-35.6-15.8-42.6-6.3c-7,9.5-22.6,21.6-22.6,21.6C127.1,77.2,82.9,94.2,47.7,87.2
				c-32.6-6.5-15.5-32.7-12.8-36.5C16.6,75.9,7.1,96.7,4.7,119C2.3,141.4,31.4,166.8,106.5,145.2z"/>
		</defs>
		<clipPath id="SVGID_00000129887526290306399620000005603263603045132734_">
			<use xlink:href="#SVGID_00000105406207188996027610000006391951332131994758_"  style="overflow:visible;"/>
		</clipPath>
		<g style="clip-path:url(#SVGID_00000129887526290306399620000005603263603045132734_);">
			<circle class="st40" cx="210.2" cy="38.4" r="5.3"/>
			<circle class="st40" cx="156.3" cy="120.3" r="3.7"/>
			<circle class="st41" cx="122.8" cy="130" r="3.7"/>
			<circle class="st41" cx="124.2" cy="79" r="2.8"/>
			<circle class="st42" cx="190.5" cy="68.2" r="4.3"/>
			<circle class="st42" cx="73.3" cy="104.8" r="5.4"/>
			<line class="st43" x1="126.4" y1="77.5" x2="178.7" y2="63.1"/>
			<line class="st43" x1="180.1" y1="65.3" x2="157.4" y2="116.7"/>
			<line class="st43" x1="159.5" y1="118.4" x2="199.7" y2="99.4"/>
			<line class="st43" x1="210.4" y1="43.7" x2="203.2" y2="94.8"/>
			<line class="st43" x1="179.8" y1="33.4" x2="235.8" y2="56.7"/>
			<line class="st43" x1="232" y1="41.3" x2="238.1" y2="54.9"/>
			<line class="st44" x1="205.4" y1="38.7" x2="171.1" y2="43.9"/>
			<line class="st43" x1="184.4" y1="59.5" x2="205.1" y2="39.8"/>
			<line class="st43" x1="178.8" y1="60.7" x2="163.4" y2="50.1"/>
			<line class="st43" x1="180.6" y1="59.2" x2="167.6" y2="46.6"/>
			<line class="st43" x1="183.6" y1="65.1" x2="201.4" y2="95.3"/>
			<line class="st43" x1="159.5" y1="122.1" x2="163" y2="124.5"/>
			<line class="st43" x1="155.4" y1="128.5" x2="155.7" y2="123.8"/>
			<line class="st43" x1="152.7" y1="121.2" x2="125" y2="130"/>
			<line class="st43" x1="122.8" y1="126.3" x2="124.2" y2="80.2"/>
			<line class="st43" x1="154.1" y1="117.2" x2="125.4" y2="80.2"/>
			<line class="st43" x1="121.7" y1="80.2" x2="104.1" y2="99.4"/>
			<line class="st43" x1="104.1" y1="105.5" x2="120.5" y2="127"/>
			<line class="st43" x1="97.2" y1="104.8" x2="66.3" y2="122.6"/>
			<line class="st43" x1="89.8" y1="85.3" x2="78.3" y2="102.7"/>
			<line class="st43" x1="73.3" y1="110.3" x2="65.9" y2="120.9"/>
			<line class="st43" x1="101" y1="96.2" x2="99" y2="81.6"/>
			<line class="st45" x1="61.3" y1="121.6" x2="52.8" y2="91"/>
			<line class="st45" x1="63.8" y1="127.7" x2="73.3" y2="151.7"/>
			<line class="st45" x1="60.9" y1="126.3" x2="32.2" y2="151.5"/>
			<line class="st45" x1="20.7" y1="125" x2="60" y2="124.5"/>
			<line class="st45" x1="33.3" y1="89.9" x2="4.6" y2="121.2"/>
			<line class="st45" x1="30.2" y1="75.5" x2="4.8" y2="115.3"/>
			<circle class="st46" cx="12.4" cy="102.7" r="7.6"/>
			<line class="st47" x1="185.4" y1="30.1" x2="192.5" y2="108.9"/>
			<line class="st47" x1="225.2" y1="30.3" x2="192.5" y2="65.3"/>
			<line class="st47" x1="193.4" y1="71.4" x2="217.5" y2="87.9"/>
			<line class="st47" x1="186.8" y1="70.6" x2="144.9" y2="106.5"/>
			<line class="st47" x1="149.6" y1="57.3" x2="142.8" y2="105.8"/>
			<line class="st47" x1="139.4" y1="106.5" x2="104.8" y2="80.2"/>
			<line class="st47" x1="143.4" y1="113.4" x2="145.2" y2="134"/>
			<line class="st47" x1="147" y1="110.3" x2="173.9" y2="117.9"/>
			<line class="st47" x1="138.8" y1="110.7" x2="109.4" y2="128.4"/>
			<line class="st47" x1="93.8" y1="81.8" x2="106.2" y2="128.9"/>
			<line class="st47" x1="104.1" y1="135.1" x2="93.8" y2="149.2"/>
			<line class="st47" x1="103.1" y1="128.3" x2="76.3" y2="107.7"/>
			<line class="st47" x1="65" y1="87" x2="71.1" y2="99.8"/>
			<line class="st47" x1="75.7" y1="100.5" x2="83.4" y2="86.4"/>
			<line class="st47" x1="69.8" y1="108.9" x2="38.1" y2="139.7"/>
			<line class="st47" x1="52.2" y1="93" x2="37.2" y2="138.1"/>
			<line class="st47" x1="31.3" y1="139.7" x2="17.8" y2="114.8"/>
			<line class="st47" x1="38.5" y1="146.6" x2="41.5" y2="151.5"/>
			<line class="st47" x1="101.9" y1="131.3" x2="18.9" y2="147.9"/>
			<circle class="st42" cx="35.3" cy="142.8" r="5.1"/>
			<line class="st48" x1="31.9" y1="89.8" x2="15.4" y2="98.7"/>
			<line class="st43" x1="214.6" y1="41.2" x2="235.8" y2="56.7"/>
			<circle class="st40" cx="203" cy="97.6" r="3.7"/>
			<line class="st43" x1="123.9" y1="132.9" x2="126.9" y2="140.2"/>
			<line class="st43" x1="120" y1="132.5" x2="102.7" y2="147.6"/>
			<line class="st47" x1="108.7" y1="134.8" x2="116.5" y2="143.3"/>
			<line class="st43" x1="67.3" y1="125.1" x2="120.2" y2="130"/>
			<circle class="st42" cx="106.2" cy="131.3" r="4.3"/>
			<line class="st47" x1="15" y1="115.2" x2="13.3" y2="141.4"/>
			<circle class="st49" cx="17.5" cy="124.8" r="3.8"/>
			<line class="st47" x1="16.7" y1="128.6" x2="14.2" y2="142.6"/>
			<circle class="st41" cx="63.8" cy="124" r="3.7"/>
			<circle class="st41" cx="52.2" cy="87.9" r="5.1"/>
			<circle class="st42" cx="142.8" cy="109.1" r="4.3"/>
			<circle class="st40" cx="181.9" cy="62.2" r="3.9"/>
			<circle class="st40" cx="239.8" cy="58.4" r="5.5"/>
			<circle class="st40" cx="229.3" cy="36.4" r="6.1"/>
			<line class="st50" x1="16.2" y1="99.4" x2="32.1" y2="89"/>
			<circle class="st49" cx="34.1" cy="85.3" r="5.1"/>
			<line class="st45" x1="39.2" y1="86.2" x2="47.2" y2="86.4"/>
			<circle class="st41" cx="101" cy="101.4" r="5.1"/>
			<circle class="st49" cx="15.7" cy="110.3" r="6.2"/>
		</g>
	</g>
	<g>
		<defs>
			<path id="SVGID_00000138563910792656029840000009517555318881257381_" d="M59.1,78.1c55.1,0.4,96.7-34.8,102.6-39.7
				c5.9-4.9,28.8-31.3,16.1-34.9s-27.2-0.9-27.2-0.9s3.2,0-15.8,2.8s-21.4,9.9-21.4,9.9s-2,3.6-6.1,6.7c-4,3.2-17.6,6.4-19.8,1.8
				c-2.2-4.7,4.4-4.3,3.4-9.6c-0.6-2.9-3.3-4-5.5-4.3c-1.8-0.3-3.7,0.1-5.3,1c-8.4,4.7-40.9,25.5-43.6,43.8
				C33.1,78,59.1,78.1,59.1,78.1z"/>
		</defs>
		<clipPath id="SVGID_00000163781691091179688790000002766493832579773597_">
			<use xlink:href="#SVGID_00000138563910792656029840000009517555318881257381_"  style="overflow:visible;"/>
		</clipPath>
		<g style="clip-path:url(#SVGID_00000163781691091179688790000002766493832579773597_);">
			<circle class="st52" cx="49.5" cy="47" r="5.4"/>
			<circle class="st53" cx="59.1" cy="74.5" r="4.2"/>
			<circle class="st53" cx="91.3" cy="70.4" r="2.4"/>
			<circle class="st52" cx="155.6" cy="45.3" r="3.4"/>
			<line class="st54" x1="135.2" y1="17.5" x2="123.6" y2="44.2"/>
			<line class="st54" x1="142.3" y1="14.7" x2="157.7" y2="23.5"/>
			<line class="st54" x1="142.8" y1="13.1" x2="176.4" y2="22.4"/>
			<line class="st54" x1="166.2" y1="27.2" x2="170.7" y2="28.6"/>
			<line class="st54" x1="160.7" y1="29.8" x2="157" y2="43.2"/>
			<line class="st54" x1="126.5" y1="48.1" x2="152.8" y2="46.3"/>
			<line class="st54" x1="79.4" y1="44.9" x2="116.9" y2="47.8"/>
			<line class="st54" x1="54.7" y1="45.5" x2="73.9" y2="37.5"/>
			<line class="st54" x1="69.8" y1="45.1" x2="54.9" y2="47"/>
			<line class="st54" x1="70.8" y1="47" x2="46.8" y2="73.9"/>
			<line class="st54" x1="47.6" y1="51.3" x2="38.7" y2="73.5"/>
			<line class="st54" x1="45.4" y1="50.6" x2="36" y2="67.9"/>
			<line class="st55" x1="83.1" y1="9.3" x2="80.6" y2="29.9"/>
			<line class="st55" x1="56.6" y1="27.2" x2="89.6" y2="9.4"/>
			<line class="st55" x1="90.3" y1="24.9" x2="83.6" y2="31.5"/>
			<line class="st55" x1="118.6" y1="9.9" x2="118.1" y2="17.5"/>
			<line class="st55" x1="115.6" y1="26.6" x2="92.9" y2="68.6"/>
			<line class="st55" x1="62.4" y1="72.1" x2="114.7" y2="24.9"/>
			<line class="st55" x1="122.4" y1="20.1" x2="132.7" y2="15.8"/>
			<line class="st55" x1="142.8" y1="11.2" x2="166.2" y2="1"/>
			<line class="st55" x1="150.8" y1="34.9" x2="92.9" y2="68.6"/>
			<line class="st55" x1="152.9" y1="36.6" x2="153.6" y2="42.5"/>
			<line class="st55" x1="113.4" y1="23.8" x2="85" y2="34.3"/>
			<line class="st55" x1="172.7" y1="1.5" x2="161.5" y2="20.5"/>
			<line class="st55" x1="155.6" y1="1.2" x2="180.4" y2="4.3"/>
			<line class="st55" x1="72.4" y1="48.2" x2="60.9" y2="70.8"/>
			<line class="st55" x1="39.8" y1="42.8" x2="73.9" y2="37.5"/>
			<line class="st55" x1="37.4" y1="54.5" x2="56.7" y2="71.1"/>
			<line class="st55" x1="64" y1="73.8" x2="88.9" y2="70.4"/>
			<line class="st55" x1="81.1" y1="41.6" x2="90.3" y2="68.9"/>
			<line class="st55" x1="156.4" y1="36.6" x2="161.3" y2="39.6"/>
			<line class="st55" x1="122.9" y1="23.2" x2="150.2" y2="32.1"/>
			<line class="st43" x1="117.8" y1="51.7" x2="99.4" y2="72.1"/>
			<circle class="st52" cx="97.4" cy="73.8" r="3.4"/>
			<line class="st43" x1="78.8" y1="46.3" x2="95.7" y2="71.5"/>
			<line class="st54" x1="79.2" y1="42.2" x2="157.7" y2="24.2"/>
			<circle class="st53" cx="79.4" cy="36" r="6.2"/>
			<circle class="st52" cx="74.6" cy="43.9" r="4.9"/>
			<circle class="st52" cx="137.1" cy="11.9" r="5.9"/>
			<circle class="st53" cx="118.1" cy="22.4" r="4.9"/>
			<circle class="st52" cx="161.3" cy="24.9" r="4.9"/>
			<circle class="st53" cx="154.3" cy="32.7" r="4.1"/>
			<line class="st54" x1="85.1" y1="33.4" x2="133.3" y2="13.7"/>
			<line class="st54" x1="157" y1="26.9" x2="126.5" y2="46"/>
			<circle class="st52" cx="121.7" cy="48.7" r="4.9"/>
		</g>
	</g>
</g>
</svg>
